<?xml version="1.0" encoding="utf-8"?>
<!-- Generator: Adobe Illustrator 26.3.1, SVG Export Plug-In . SVG Version: 6.00 Build 0)  -->
<svg version="1.1" id="Layer_1" xmlns="http://www.w3.org/2000/svg" xmlns:xlink="http://www.w3.org/1999/xlink" x="0px" y="0px"
	 viewBox="0 0 275 25" style="enable-background:new 0 0 275 25;" xml:space="preserve">
<style type="text/css">
	.st0{fill:#454650;}
</style>
<g>
	<path class="st0" d="M6.6,9.1c0.4-0.8,1-1.4,1.8-1.9c0.8-0.4,1.7-0.7,2.7-0.7c1.3,0,2.3,0.3,3.1,0.9s1.4,1.5,1.7,2.6h-2.3
		c-0.2-0.5-0.5-0.9-0.9-1.2s-0.9-0.4-1.6-0.4c-0.9,0-1.6,0.3-2.1,0.9S8.2,10.9,8.2,12c0,1.1,0.3,2,0.8,2.6c0.5,0.6,1.2,0.9,2.1,0.9
		c1.3,0,2.1-0.6,2.5-1.7h2.3c-0.3,1.1-0.9,1.9-1.7,2.5c-0.8,0.6-1.9,0.9-3.1,0.9c-1,0-1.9-0.2-2.7-0.7c-0.8-0.4-1.4-1.1-1.8-1.9
		C6.2,14,6,13.1,6,12C6,10.9,6.2,10,6.6,9.1z"/>
	<path class="st0" d="M19.9,16.7c-0.8-0.4-1.4-1.1-1.9-1.9c-0.5-0.8-0.7-1.8-0.7-2.8c0-1.1,0.2-2,0.7-2.8c0.5-0.8,1.1-1.5,1.9-1.9
		c0.8-0.4,1.7-0.7,2.7-0.7c1,0,1.9,0.2,2.7,0.7c0.8,0.4,1.5,1.1,1.9,1.9c0.5,0.8,0.7,1.8,0.7,2.8c0,1.1-0.2,2-0.7,2.8
		c-0.5,0.8-1.1,1.5-2,1.9c-0.8,0.5-1.7,0.7-2.7,0.7C21.6,17.4,20.7,17.2,19.9,16.7z M24.2,15.1c0.5-0.3,0.9-0.7,1.2-1.2
		c0.3-0.5,0.5-1.2,0.5-1.9s-0.1-1.4-0.4-1.9c-0.3-0.5-0.7-0.9-1.2-1.2c-0.5-0.3-1-0.4-1.6-0.4c-0.6,0-1.1,0.1-1.5,0.4
		c-0.5,0.3-0.9,0.7-1.1,1.2c-0.3,0.5-0.4,1.2-0.4,1.9c0,1.1,0.3,2,0.9,2.6c0.6,0.6,1.3,0.9,2.2,0.9C23.2,15.5,23.7,15.4,24.2,15.1z"
		/>
	<path class="st0" d="M37.7,7.1c0.7,0.3,1.2,0.8,1.5,1.5c0.4,0.7,0.6,1.5,0.6,2.4v6.2h-2.1v-5.9c0-0.9-0.2-1.7-0.7-2.2
		S35.8,8.5,35,8.5s-1.5,0.2-1.9,0.8c-0.5,0.5-0.7,1.2-0.7,2.2v5.9h-2.2V6.8h2.2V8c0.4-0.4,0.8-0.8,1.4-1c0.6-0.2,1.1-0.4,1.8-0.4
		C36.3,6.6,37,6.8,37.7,7.1z"/>
	<path class="st0" d="M45.1,8.5v5.8c0,0.4,0.1,0.7,0.3,0.8s0.5,0.3,0.9,0.3h1.3v1.8h-1.7c-1,0-1.7-0.2-2.2-0.7s-0.8-1.2-0.8-2.2V8.5
		h-1.2V6.8h1.2V4.2h2.2v2.6h2.5v1.8H45.1z"/>
	<path class="st0" d="M49.5,9.2c0.4-0.8,1-1.4,1.8-1.9c0.8-0.4,1.6-0.7,2.5-0.7c0.8,0,1.5,0.2,2.2,0.5c0.6,0.3,1.1,0.7,1.5,1.2V6.8
		h2.2v10.5h-2.2v-1.6c-0.4,0.5-0.9,0.9-1.5,1.2s-1.4,0.5-2.2,0.5c-0.9,0-1.7-0.2-2.5-0.7c-0.7-0.5-1.3-1.1-1.8-1.9
		c-0.4-0.8-0.7-1.8-0.7-2.8C48.9,10.9,49.1,10,49.5,9.2z M57,10.1c-0.3-0.5-0.7-0.9-1.2-1.2c-0.5-0.3-1-0.4-1.6-0.4
		c-0.6,0-1.1,0.1-1.6,0.4c-0.5,0.3-0.9,0.7-1.2,1.2c-0.3,0.5-0.4,1.1-0.4,1.9c0,0.7,0.1,1.4,0.4,1.9c0.3,0.5,0.7,1,1.2,1.2
		s1,0.4,1.5,0.4c0.6,0,1.1-0.1,1.6-0.4c0.5-0.3,0.9-0.7,1.2-1.2c0.3-0.5,0.4-1.2,0.4-1.9S57.3,10.6,57,10.1z"/>
	<path class="st0" d="M62.4,9.1c0.4-0.8,1-1.4,1.8-1.9c0.8-0.4,1.7-0.7,2.7-0.7c1.3,0,2.3,0.3,3.1,0.9s1.4,1.5,1.7,2.6h-2.3
		c-0.2-0.5-0.5-0.9-0.9-1.2s-0.9-0.4-1.6-0.4c-0.9,0-1.6,0.3-2.1,0.9S64,10.9,64,12c0,1.1,0.3,2,0.8,2.6c0.5,0.6,1.2,0.9,2.1,0.9
		c1.3,0,2.1-0.6,2.5-1.7h2.3c-0.3,1.1-0.9,1.9-1.7,2.5c-0.8,0.6-1.9,0.9-3.1,0.9c-1,0-1.9-0.2-2.7-0.7c-0.8-0.4-1.4-1.1-1.8-1.9
		C62,14,61.8,13.1,61.8,12C61.8,10.9,62,10,62.4,9.1z"/>
	<path class="st0" d="M76.4,8.5v5.8c0,0.4,0.1,0.7,0.3,0.8s0.5,0.3,0.9,0.3H79v1.8h-1.7c-1,0-1.7-0.2-2.2-0.7s-0.8-1.2-0.8-2.2V8.5
		H73V6.8h1.2V4.2h2.2v2.6H79v1.8H76.4z"/>
	<path class="st0" d="M82.8,16.7c-0.8-0.4-1.4-1.1-1.9-1.9c-0.5-0.8-0.7-1.8-0.7-2.8c0-1.1,0.2-2,0.7-2.8c0.5-0.8,1.1-1.5,1.9-1.9
		c0.8-0.4,1.7-0.7,2.7-0.7c1,0,1.9,0.2,2.7,0.7c0.8,0.4,1.5,1.1,1.9,1.9c0.5,0.8,0.7,1.8,0.7,2.8c0,1.1-0.2,2-0.7,2.8
		c-0.5,0.8-1.1,1.5-2,1.9c-0.8,0.5-1.7,0.7-2.7,0.7C84.5,17.4,83.6,17.2,82.8,16.7z M87.1,15.1c0.5-0.3,0.9-0.7,1.2-1.2
		c0.3-0.5,0.5-1.2,0.5-1.9s-0.1-1.4-0.4-1.9c-0.3-0.5-0.7-0.9-1.2-1.2c-0.5-0.3-1-0.4-1.6-0.4c-0.6,0-1.1,0.1-1.5,0.4
		c-0.5,0.3-0.9,0.7-1.1,1.2c-0.3,0.5-0.4,1.2-0.4,1.9c0,1.1,0.3,2,0.9,2.6c0.6,0.6,1.3,0.9,2.2,0.9C86,15.5,86.6,15.4,87.1,15.1z"/>
	<path class="st0" d="M106.6,5.8c1.1,0.5,1.9,1.3,2.4,2.2c0.6,1,0.8,2.1,0.8,3.3c0,1-0.2,2-0.5,2.9c-0.3,0.9-0.8,1.7-1.5,2.3
		c-0.7,0.6-1.4,0.9-2.3,0.9c-0.6,0-1.2-0.1-1.5-0.4c-0.4-0.3-0.6-0.7-0.7-1.2c-0.4,0.5-0.9,0.9-1.5,1.2c-0.6,0.3-1.2,0.4-1.9,0.4
		c-1,0-1.7-0.3-2.3-0.9c-0.6-0.6-0.8-1.4-0.8-2.4c0-1,0.2-1.9,0.6-2.7c0.4-0.8,1-1.5,1.7-2c0.7-0.5,1.5-0.8,2.4-0.8
		c1.1,0,1.9,0.4,2.3,1.1l0.2-1h1.9l-1,5.4c0,0.3-0.1,0.5-0.1,0.7c0,0.3,0.1,0.6,0.2,0.7c0.1,0.2,0.4,0.2,0.7,0.2
		c0.5,0,0.9-0.2,1.2-0.7c0.3-0.5,0.6-1.1,0.8-1.8c0.2-0.7,0.3-1.4,0.3-2c0-1.6-0.5-2.8-1.4-3.7c-0.9-0.8-2.3-1.3-4.1-1.3
		c-1.5,0-2.8,0.4-4,1.1c-1.2,0.7-2.1,1.7-2.8,2.9c-0.7,1.2-1,2.6-1,4.1c0,1.6,0.5,2.9,1.4,3.7c1,0.8,2.3,1.3,4.1,1.3
		c1.2,0,2.3-0.2,3.2-0.7l0.3,1.4c-1.2,0.5-2.4,0.7-3.9,0.7c-1.4,0-2.6-0.3-3.6-0.8c-1-0.5-1.8-1.3-2.4-2.2S93,16,93,14.8
		c0-1.8,0.4-3.5,1.3-5c0.8-1.5,2-2.7,3.5-3.5c1.5-0.9,3.2-1.3,5.1-1.3C104.3,5,105.5,5.2,106.6,5.8z M102,15.2
		c0.4-0.3,0.8-0.7,1-1.2c0.3-0.5,0.4-1.1,0.4-1.6c0-0.6-0.2-1.1-0.5-1.5c-0.3-0.4-0.8-0.6-1.4-0.6c-0.5,0-1,0.2-1.4,0.5
		c-0.4,0.3-0.7,0.8-0.9,1.3c-0.2,0.5-0.3,1.1-0.3,1.7c0,0.6,0.1,1.1,0.4,1.4c0.3,0.3,0.7,0.5,1.3,0.5
		C101.1,15.7,101.6,15.5,102,15.2z"/>
	<path class="st0" d="M112.5,9.1c0.4-0.8,1-1.4,1.8-1.9c0.8-0.4,1.7-0.7,2.7-0.7c1.3,0,2.3,0.3,3.1,0.9s1.4,1.5,1.7,2.6h-2.3
		c-0.2-0.5-0.5-0.9-0.9-1.2s-0.9-0.4-1.6-0.4c-0.9,0-1.6,0.3-2.1,0.9S114,10.9,114,12c0,1.1,0.3,2,0.8,2.6c0.5,0.6,1.2,0.9,2.1,0.9
		c1.3,0,2.1-0.6,2.5-1.7h2.3c-0.3,1.1-0.9,1.9-1.7,2.5c-0.8,0.6-1.9,0.9-3.1,0.9c-1,0-1.9-0.2-2.7-0.7c-0.8-0.4-1.4-1.1-1.8-1.9
		c-0.4-0.8-0.7-1.8-0.7-2.8C111.8,10.9,112,10,112.5,9.1z"/>
	<path class="st0" d="M127.4,7c0.5-0.3,1.1-0.4,1.9-0.4v2.2h-0.6c-0.8,0-1.5,0.2-1.9,0.6s-0.7,1.2-0.7,2.2v5.5h-2.2V6.8h2.2v1.5
		C126.4,7.8,126.8,7.3,127.4,7z"/>
	<path class="st0" d="M131.4,5c-0.3-0.3-0.4-0.6-0.4-1c0-0.4,0.1-0.7,0.4-1s0.6-0.4,1-0.4c0.4,0,0.7,0.1,1,0.4s0.4,0.6,0.4,1
		c0,0.4-0.1,0.7-0.4,1s-0.6,0.4-1,0.4C131.9,5.4,131.6,5.2,131.4,5z M133.4,6.8v10.5h-2.2V6.8H133.4z"/>
	<path class="st0" d="M137.8,17c-0.7-0.3-1.2-0.7-1.5-1.2c-0.4-0.5-0.6-1.1-0.6-1.7h2.2c0,0.4,0.2,0.8,0.6,1.1
		c0.4,0.3,0.9,0.4,1.5,0.4c0.6,0,1.1-0.1,1.4-0.4c0.3-0.2,0.5-0.5,0.5-0.9c0-0.4-0.2-0.7-0.6-0.9c-0.4-0.2-1-0.4-1.8-0.6
		c-0.8-0.2-1.4-0.4-1.9-0.6c-0.5-0.2-0.9-0.5-1.3-0.9s-0.5-1-0.5-1.7c0-0.6,0.2-1.1,0.5-1.5c0.3-0.5,0.8-0.8,1.4-1.1
		c0.6-0.3,1.3-0.4,2.1-0.4c1.2,0,2.2,0.3,2.9,0.9s1.1,1.4,1.2,2.5h-2.2c0-0.5-0.2-0.8-0.6-1.1c-0.3-0.3-0.8-0.4-1.4-0.4
		c-0.6,0-1,0.1-1.3,0.3C138.2,9,138,9.2,138,9.6c0,0.3,0.1,0.5,0.3,0.7c0.2,0.2,0.5,0.3,0.7,0.4c0.3,0.1,0.7,0.2,1.3,0.4
		c0.8,0.2,1.4,0.4,1.9,0.6c0.5,0.2,0.9,0.5,1.3,0.9s0.5,0.9,0.6,1.6c0,0.6-0.2,1.1-0.5,1.6c-0.3,0.5-0.8,0.8-1.4,1.1
		c-0.6,0.3-1.3,0.4-2.1,0.4C139.2,17.4,138.5,17.3,137.8,17z"/>
	<path class="st0" d="M148.9,8.5v5.8c0,0.4,0.1,0.7,0.3,0.8s0.5,0.3,0.9,0.3h1.3v1.8h-1.7c-1,0-1.7-0.2-2.2-0.7s-0.8-1.2-0.8-2.2
		V8.5h-1.2V6.8h1.2V4.2h2.2v2.6h2.5v1.8H148.9z"/>
	<path class="st0" d="M155.3,16.7c-0.8-0.4-1.4-1.1-1.9-1.9c-0.5-0.8-0.7-1.8-0.7-2.8c0-1.1,0.2-2,0.7-2.8c0.5-0.8,1.1-1.5,1.9-1.9
		c0.8-0.4,1.7-0.7,2.7-0.7c1,0,1.9,0.2,2.7,0.7c0.8,0.4,1.5,1.1,1.9,1.9c0.5,0.8,0.7,1.8,0.7,2.8c0,1.1-0.2,2-0.7,2.8
		s-1.1,1.5-2,1.9c-0.8,0.5-1.7,0.7-2.7,0.7C157,17.4,156.1,17.2,155.3,16.7z M159.6,15.1c0.5-0.3,0.9-0.7,1.2-1.2
		c0.3-0.5,0.5-1.2,0.5-1.9s-0.1-1.4-0.4-1.9c-0.3-0.5-0.7-0.9-1.2-1.2c-0.5-0.3-1-0.4-1.6-0.4c-0.6,0-1.1,0.1-1.5,0.4
		c-0.5,0.3-0.9,0.7-1.1,1.2S155,11.2,155,12c0,1.1,0.3,2,0.9,2.6c0.6,0.6,1.3,0.9,2.2,0.9C158.6,15.5,159.1,15.4,159.6,15.1z"/>
	<path class="st0" d="M169,7c0.5-0.3,1.1-0.4,1.9-0.4v2.2h-0.6c-0.8,0-1.5,0.2-1.9,0.6c-0.4,0.4-0.7,1.2-0.7,2.2v5.5h-2.2V6.8h2.2
		v1.5C168.1,7.8,168.5,7.3,169,7z"/>
	<path class="st0" d="M182.4,12.8h-8c0.1,0.8,0.4,1.5,0.9,2s1.2,0.8,2.1,0.8c1.2,0,2-0.5,2.5-1.5h2.3c-0.3,1-0.9,1.8-1.7,2.4
		c-0.8,0.6-1.9,0.9-3.1,0.9c-1,0-1.9-0.2-2.7-0.7c-0.8-0.4-1.4-1.1-1.9-1.9c-0.5-0.8-0.7-1.8-0.7-2.8c0-1.1,0.2-2,0.7-2.8
		c0.4-0.8,1.1-1.4,1.8-1.9c0.8-0.4,1.7-0.7,2.7-0.7c1,0,1.9,0.2,2.6,0.6c0.8,0.4,1.4,1,1.8,1.8c0.4,0.8,0.6,1.7,0.6,2.7
		C182.5,12.1,182.5,12.5,182.4,12.8z M180.2,11.1c0-0.8-0.3-1.4-0.9-1.9c-0.6-0.5-1.2-0.7-2.1-0.7c-0.7,0-1.4,0.2-1.9,0.7
		s-0.8,1.1-1,1.9H180.2z"/>
	<path class="st0" d="M194,6.8l-6.4,15.4h-2.2l2.1-5.1l-4.1-10.3h2.4l2.9,8l3.1-8H194z"/>
	<path class="st0" d="M195.6,9.2c0.4-0.8,1-1.4,1.8-1.9s1.6-0.7,2.5-0.7c0.8,0,1.5,0.2,2.2,0.5c0.6,0.3,1.1,0.7,1.5,1.2V6.8h2.2
		v10.5h-2.2v-1.6c-0.4,0.5-0.9,0.9-1.5,1.2c-0.6,0.3-1.4,0.5-2.2,0.5c-0.9,0-1.7-0.2-2.5-0.7c-0.7-0.5-1.3-1.1-1.8-1.9
		c-0.4-0.8-0.7-1.8-0.7-2.8C194.9,10.9,195.2,10,195.6,9.2z M203.1,10.1c-0.3-0.5-0.7-0.9-1.2-1.2s-1-0.4-1.6-0.4s-1.1,0.1-1.6,0.4
		c-0.5,0.3-0.9,0.7-1.2,1.2c-0.3,0.5-0.4,1.1-0.4,1.9c0,0.7,0.1,1.4,0.4,1.9c0.3,0.5,0.7,1,1.2,1.2c0.5,0.3,1,0.4,1.5,0.4
		c0.6,0,1.1-0.1,1.6-0.4s0.9-0.7,1.2-1.2s0.4-1.2,0.4-1.9S203.4,10.6,203.1,10.1z"/>
	<path class="st0" d="M216,7.1c0.7,0.3,1.2,0.8,1.5,1.5c0.4,0.7,0.6,1.5,0.6,2.4v6.2H216v-5.9c0-0.9-0.2-1.7-0.7-2.2
		c-0.5-0.5-1.1-0.8-1.9-0.8c-0.8,0-1.5,0.2-1.9,0.8c-0.5,0.5-0.7,1.2-0.7,2.2v5.9h-2.2V6.8h2.2V8c0.4-0.4,0.8-0.8,1.4-1
		c0.6-0.2,1.1-0.4,1.8-0.4C214.7,6.6,215.4,6.8,216,7.1z"/>
	<path class="st0" d="M227.3,7.1c0.6,0.3,1.1,0.7,1.5,1.2V6.8h2.2v10.6c0,1-0.2,1.8-0.6,2.6c-0.4,0.8-1,1.3-1.8,1.8
		c-0.8,0.4-1.7,0.6-2.7,0.6c-1.4,0-2.6-0.3-3.5-1s-1.5-1.6-1.6-2.7h2.1c0.2,0.5,0.5,1,1.1,1.3c0.5,0.3,1.2,0.5,1.9,0.5
		c0.9,0,1.6-0.3,2.1-0.8c0.5-0.5,0.8-1.3,0.8-2.3v-1.7c-0.4,0.5-0.9,0.9-1.5,1.2c-0.6,0.3-1.3,0.5-2.1,0.5c-0.9,0-1.7-0.2-2.5-0.7
		c-0.8-0.5-1.3-1.1-1.8-1.9c-0.4-0.8-0.7-1.8-0.7-2.8c0-1.1,0.2-2,0.7-2.8c0.4-0.8,1-1.4,1.8-1.9s1.6-0.7,2.5-0.7
		C225.9,6.6,226.6,6.8,227.3,7.1z M228.3,10.1c-0.3-0.5-0.7-0.9-1.2-1.2s-1-0.4-1.6-0.4s-1.1,0.1-1.6,0.4c-0.5,0.3-0.9,0.7-1.2,1.2
		c-0.3,0.5-0.4,1.1-0.4,1.9c0,0.7,0.1,1.4,0.4,1.9c0.3,0.5,0.7,1,1.2,1.2c0.5,0.3,1,0.4,1.5,0.4c0.6,0,1.1-0.1,1.6-0.4
		s0.9-0.7,1.2-1.2s0.4-1.2,0.4-1.9S228.6,10.6,228.3,10.1z"/>
	<path class="st0" d="M235.6,16.7c-0.8-0.4-1.4-1.1-1.9-1.9c-0.5-0.8-0.7-1.8-0.7-2.8c0-1.1,0.2-2,0.7-2.8c0.5-0.8,1.1-1.5,1.9-1.9
		c0.8-0.4,1.7-0.7,2.7-0.7c1,0,1.9,0.2,2.7,0.7c0.8,0.4,1.5,1.1,1.9,1.9c0.5,0.8,0.7,1.8,0.7,2.8c0,1.1-0.2,2-0.7,2.8
		s-1.1,1.5-2,1.9c-0.8,0.5-1.7,0.7-2.7,0.7C237.3,17.4,236.4,17.2,235.6,16.7z M239.9,15.1c0.5-0.3,0.9-0.7,1.2-1.2
		c0.3-0.5,0.5-1.2,0.5-1.9s-0.1-1.4-0.4-1.9c-0.3-0.5-0.7-0.9-1.2-1.2c-0.5-0.3-1-0.4-1.6-0.4c-0.6,0-1.1,0.1-1.5,0.4
		c-0.5,0.3-0.9,0.7-1.1,1.2s-0.4,1.2-0.4,1.9c0,1.1,0.3,2,0.9,2.6c0.6,0.6,1.3,0.9,2.2,0.9C238.9,15.5,239.4,15.4,239.9,15.1z"/>
	<path class="st0" d="M248.1,3.2v14.1h-2.2V3.2H248.1z"/>
	<path class="st0" d="M250.8,17c-0.3-0.3-0.4-0.6-0.4-1s0.1-0.7,0.4-1c0.3-0.3,0.6-0.4,1-0.4c0.4,0,0.7,0.1,1,0.4
		c0.3,0.3,0.4,0.6,0.4,1s-0.1,0.7-0.4,1c-0.3,0.3-0.6,0.4-1,0.4C251.4,17.4,251.1,17.2,250.8,17z"/>
	<path class="st0" d="M255.4,9.1c0.4-0.8,1-1.4,1.8-1.9c0.8-0.4,1.7-0.7,2.7-0.7c1.3,0,2.3,0.3,3.1,0.9c0.8,0.6,1.4,1.5,1.7,2.6
		h-2.3c-0.2-0.5-0.5-0.9-0.9-1.2s-0.9-0.4-1.6-0.4c-0.9,0-1.6,0.3-2.1,0.9c-0.5,0.6-0.8,1.5-0.8,2.6c0,1.1,0.3,2,0.8,2.6
		c0.5,0.6,1.2,0.9,2.1,0.9c1.3,0,2.1-0.6,2.5-1.7h2.3c-0.3,1.1-0.9,1.9-1.7,2.5s-1.9,0.9-3.1,0.9c-1,0-1.9-0.2-2.7-0.7
		c-0.8-0.4-1.4-1.1-1.8-1.9c-0.4-0.8-0.7-1.8-0.7-2.8C254.8,10.9,255,10,255.4,9.1z"/>
	<path class="st0" d="M269,3.2v14.1h-2.2V3.2H269z"/>
</g>
</svg>
